HIERARCHY
ROOT Hips
{
	OFFSET -14.64140 90.27770 -84.91600
	CHANNELS 6 Xposition Yposition Zposition Zrotation Xrotation Yrotation
	JOINT Spine
	{
		OFFSET 0.00000 13.20850 -1.60436
		CHANNELS 3 Zrotation Xrotation Yrotation
		JOINT Spine1
		{
			OFFSET 0.00000 8.61716 0.00000
			CHANNELS 3 Zrotation Xrotation Yrotation
			JOINT Spine2
			{
				OFFSET 0.00000 8.61717 0.00000
				CHANNELS 3 Zrotation Xrotation Yrotation
				JOINT Spine3
				{
					OFFSET 0.00000 8.61717 0.00000
					CHANNELS 3 Zrotation Xrotation Yrotation
					JOINT Neck
					{
						OFFSET 0.00000 11.07920 1.10792
						CHANNELS 3 Zrotation Xrotation Yrotation
						JOINT Neck1
						{
							OFFSET 0.00000 7.08032 0.00000
							CHANNELS 3 Zrotation Xrotation Yrotation
							JOINT Head
							{
								OFFSET 0.00000 7.08031 0.00000
								CHANNELS 3 Zrotation Xrotation Yrotation
								End site
								{
									OFFSET 0.00000 0.00000 0.00000
								}
							}
						}
					}
					JOINT RightShoulder
					{
						OFFSET -0.01000 7.91373 5.19711
						CHANNELS 3 Zrotation Xrotation Yrotation
						JOINT RightArm
						{
							OFFSET -18.41580 0.00000 0.00000
							CHANNELS 3 Zrotation Xrotation Yrotation
							JOINT RightForeArm
							{
								OFFSET -29.11090 0.00000 0.00000
								CHANNELS 3 Zrotation Xrotation Yrotation
								JOINT RightHand
								{
									OFFSET -24.65040 0.00000 0.00000
									CHANNELS 3 Zrotation Xrotation Yrotation
									JOINT RightHandThumb1
									{
										OFFSET -5.35114 -0.85590 3.97906
										CHANNELS 3 Zrotation Xrotation Yrotation
										JOINT RightHandThumb2
										{
											OFFSET -4.52789 0.00000 0.00000
											CHANNELS 3 Zrotation Xrotation Yrotation
											JOINT RightHandThumb3
											{
												OFFSET -2.46976 0.00000 0.00000
												CHANNELS 3 Zrotation Xrotation Yrotation
												End site
												{
													OFFSET 0.00000 0.00000 0.00000
												}
											}
										}
									}
									JOINT RightHandIndex1
									{
										OFFSET -14.26970 0.00000 2.88139
										CHANNELS 3 Zrotation Xrotation Yrotation
										JOINT RightHandIndex2
										{
											OFFSET -5.48836 0.00000 0.00000
											CHANNELS 3 Zrotation Xrotation Yrotation
											JOINT RightHandIndex3
											{
												OFFSET -3.01859 0.00000 0.00000
												CHANNELS 3 Zrotation Xrotation Yrotation
												End site
												{
													OFFSET 0.00000 0.00000 0.00000
												}
											}
										}
									}
									JOINT RightHandMiddle1
									{
										OFFSET -14.26970 0.00000 -0.09147
										CHANNELS 3 Zrotation Xrotation Yrotation
										JOINT RightHandMiddle2
										{
											OFFSET -6.17441 0.00000 0.00000
											CHANNELS 3 Zrotation Xrotation Yrotation
											JOINT RightHandMiddle3
											{
												OFFSET -3.56743 0.00000 0.00000
												CHANNELS 3 Zrotation Xrotation Yrotation
												End site
												{
													OFFSET 0.00000 0.00000 0.00000
												}
											}
										}
									}
									JOINT RightHandRing1
									{
										OFFSET -12.69180 0.00000 -3.06433
										CHANNELS 3 Zrotation Xrotation Yrotation
										JOINT RightHandRing2
										{
											OFFSET -5.62556 0.00000 0.00000
											CHANNELS 3 Zrotation Xrotation Yrotation
											JOINT RightHandRing3
											{
												OFFSET -3.56744 0.00000 0.00000
												CHANNELS 3 Zrotation Xrotation Yrotation
												End site
												{
													OFFSET 0.00000 0.00000 0.00000
												}
											}
										}
									}
									JOINT RightHandPinky1
									{
										OFFSET -11.11390 0.00000 -6.03719
										CHANNELS 3 Zrotation Xrotation Yrotation
										JOINT RightHandPinky2
										{
											OFFSET -4.52789 0.00000 0.00000
											CHANNELS 3 Zrotation Xrotation Yrotation
											JOINT RightHandPinky3
											{
												OFFSET -2.46976 0.00000 0.00000
												CHANNELS 3 Zrotation Xrotation Yrotation
												End site
												{
													OFFSET 0.00000 0.00000 0.00000
												}
											}
										}
									}
								}
							}
						}
					}
					JOINT LeftShoulder
					{
						OFFSET 0.01000 7.91373 5.19711
						CHANNELS 3 Zrotation Xrotation Yrotation
						JOINT LeftArm
						{
							OFFSET 18.41580 0.00000 0.00000
							CHANNELS 3 Zrotation Xrotation Yrotation
							JOINT LeftForeArm
							{
								OFFSET 29.11090 0.00000 0.00000
								CHANNELS 3 Zrotation Xrotation Yrotation
								JOINT LeftHand
								{
									OFFSET 24.65040 0.00000 0.00000
									CHANNELS 3 Zrotation Xrotation Yrotation
									JOINT LeftHandThumb1
									{
										OFFSET 5.35114 -0.85590 3.97906
										CHANNELS 3 Zrotation Xrotation Yrotation
										JOINT LeftHandThumb2
										{
											OFFSET 4.52789 0.00000 0.00000
											CHANNELS 3 Zrotation Xrotation Yrotation
											JOINT LeftHandThumb3
											{
												OFFSET 2.46977 0.00000 0.00000
												CHANNELS 3 Zrotation Xrotation Yrotation
												End site
												{
													OFFSET 0.00000 0.00000 0.00000
												}
											}
										}
									}
									JOINT LeftHandIndex1
									{
										OFFSET 14.26970 0.00000 2.88139
										CHANNELS 3 Zrotation Xrotation Yrotation
										JOINT LeftHandIndex2
										{
											OFFSET 5.48836 0.00000 0.00000
											CHANNELS 3 Zrotation Xrotation Yrotation
											JOINT LeftHandIndex3
											{
												OFFSET 3.01859 0.00000 0.00000
												CHANNELS 3 Zrotation Xrotation Yrotation
												End site
												{
													OFFSET 0.00000 0.00000 0.00000
												}
											}
										}
									}
									JOINT LeftHandMiddle1
									{
										OFFSET 14.26970 0.00000 -0.09147
										CHANNELS 3 Zrotation Xrotation Yrotation
										JOINT LeftHandMiddle2
										{
											OFFSET 6.17440 0.00000 0.00000
											CHANNELS 3 Zrotation Xrotation Yrotation
											JOINT LeftHandMiddle3
											{
												OFFSET 3.56744 0.00000 0.00000
												CHANNELS 3 Zrotation Xrotation Yrotation
												End site
												{
													OFFSET 0.00000 0.00000 0.00000
												}
											}
										}
									}
									JOINT LeftHandRing1
									{
										OFFSET 12.69180 0.00000 -3.06433
										CHANNELS 3 Zrotation Xrotation Yrotation
										JOINT LeftHandRing2
										{
											OFFSET 5.62556 0.00000 0.00000
											CHANNELS 3 Zrotation Xrotation Yrotation
											JOINT LeftHandRing3
											{
												OFFSET 3.56744 0.00000 0.00000
												CHANNELS 3 Zrotation Xrotation Yrotation
												End site
												{
													OFFSET 0.00000 0.00000 0.00000
												}
											}
										}
									}
									JOINT LeftHandPinky1
									{
										OFFSET 11.11390 0.00000 -6.03719
										CHANNELS 3 Zrotation Xrotation Yrotation
										JOINT LeftHandPinky2
										{
											OFFSET 4.52789 0.00000 0.00000
											CHANNELS 3 Zrotation Xrotation Yrotation
											JOINT LeftHandPinky3
											{
												OFFSET 2.46976 0.00000 0.00000
												CHANNELS 3 Zrotation Xrotation Yrotation
												End site
												{
													OFFSET 0.00000 0.00000 0.00000
												}
											}
										}
									}
								}
							}
						}
					}
					JOINT pCube4
					{
						OFFSET 0.00000 10.91090 1.10792
						CHANNELS 3 Zrotation Xrotation Yrotation
						End site
						{
							OFFSET 0.00000 0.00000 0.00000
						}
					}
				}
			}
		}
	}
	JOINT RightUpLeg
	{
		OFFSET -9.98441 0.00000 0.00000
		CHANNELS 3 Zrotation Xrotation Yrotation
		JOINT RightLeg
		{
			OFFSET 0.00000 -42.11790 0.00000
			CHANNELS 3 Zrotation Xrotation Yrotation
			JOINT RightFoot
			{
				OFFSET 0.00000 -45.00020 -0.00001
				CHANNELS 3 Zrotation Xrotation Yrotation
				JOINT RightForeFoot
				{
					OFFSET 0.00000 -3.74820 0.00000
					CHANNELS 3 Zrotation Xrotation Yrotation
					JOINT RightToeBase
					{
						OFFSET 0.00000 0.06325 14.43120
						CHANNELS 3 Zrotation Xrotation Yrotation
						End site
						{
							OFFSET 0.00000 0.00000 0.00000
						}
					}
				}
			}
		}
	}
	JOINT LeftUpLeg
	{
		OFFSET 9.98441 0.00000 0.00000
		CHANNELS 3 Zrotation Xrotation Yrotation
		JOINT LeftLeg
		{
			OFFSET 0.00000 -42.11800 0.00000
			CHANNELS 3 Zrotation Xrotation Yrotation
			JOINT LeftFoot
			{
				OFFSET 0.00000 -45.00070 0.00000
				CHANNELS 3 Zrotation Xrotation Yrotation
				JOINT LeftForeFoot
				{
					OFFSET 0.00000 -3.74824 0.00000
					CHANNELS 3 Zrotation Xrotation Yrotation
					JOINT LeftToeBase
					{
						OFFSET 0.00000 0.06325 14.43110
						CHANNELS 3 Zrotation Xrotation Yrotation
						End site
						{
							OFFSET 0.00000 0.00000 0.00000
						}
					}
				}
			}
		}
	}
}
MOTION
Frames: 4
Frame Time: 0.050000
0.03798242607499171 -0.03883821943844756 -0.013585930010586689 -0.004500359442014152 0.01500694427401578 -0.002346452035597153 -3.229340276800311 -0.16934123077839972 -0.8290486651246513 -0.9704868075625701 3.7506238874730617 0.416567599221556 -1.3407284152039007 -1.9708400312391798 -0.09310327212891058 -0.2345822619089203 0.33123923002898653 -0.6871140501357188 0.21500565436701075 12.294574000713983 -0.2971063164694653 0.11798028598517381 -1.2622384337058226 -2.859093486537879 0.48913439194636593 -17.306392786145224 -0.26299041440323706 -5.302175160055507 2.0108302517253795 -14.687811087160352 71.83675967045532 30.890603949638386 11.28850248765476 1.3685001763323135 3.56304180801318 91.30351725404698 17.273338656748898 -0.6126167423855753 -4.349567842199697 4.534877211747255 -0.13091814601323173 -1.595857397489689 0.03145086717909483 0.0287093768368722 -56.24639330004678 -0.017404251902967644 -0.012651077161163505 -56.25739179504889 -38.81601893692108 0.020497109078460245 -0.022123701347112532 0.017173793350060185 0.03911862082496379 0.024899253440240483 0.01731359442820117 0.04623837513613751 0.01862133968754023 -36.674965572248745 0.028575417178772957 0.04720449678177504 -0.03973405271938041 0.02019981810256125 0.01726139374275173 0.013454078559115587 -0.01357178054643838 -0.029533572645408016 -19.778911649302884 0.0065837473406298135 -0.028153397550555997 -0.02676763839749713 -0.010960714342229819 -0.03967184271034977 0.022773865931813762 0.008715076780165565 -0.03077478468042036 24.06826986902843 0.01489528678224662 0.011511283291127 28.820497418371914 0.027138643210904145 -0.048345392097957435 28.828316289138165 -0.014320054704137063 -0.008360986991037074 4.9219080836065965 1.1704712819677892 13.133198785973848 -74.0015784915356 30.668632896811207 -3.60658518960488 1.400857792512427 -8.038984837137502 -40.557990520640864 -15.583971324565528 -2.383398383972238 5.4873085267150215 -0.45996622688771854 0.041410831291601266 -8.112550983260377 -0.019515166367388547 0.029737603517637056 44.52458152224584 -0.014525616969050574 0.03141946689276635 44.54533847153449 12.484811072751382 -0.010742963182955144 0.039021639440673724 -0.012806445130111487 0.048601042054361915 -0.037865963597369025 -0.010631549245986489 0.021213301568539036 0.010594806078267504 11.14175599188719 0.024677463935740638 0.04539072733546088 -0.03697233712995487 -0.003336126707043975 0.024471705099883792 0.01299347367048024 0.018633946303871055 -0.02650670710279139 4.811023249251798 0.04550351432942133 0.015581988236461161 -0.013959196650292929 0.032728199253896244 0.028220185219689553 0.023603600047318908 0.0011056625054140976 -0.019634984117063728 -5.644193685536498 0.033901469694992345 -0.046229631744300725 -6.715040782886672 0.022781221521727856 -0.04599073147527077 -6.738013706824706 0.04083007872527002 -0.0009088044853009926 -0.013813464783743727 0.012480608100812888 0.046349179017826835 8.033395966602209 3.513842731588568 -19.23006325375131 0.03152591386962477 10.358368313836973 0.0004526378169120108 -5.61761156077131 -15.698189754956857 3.1787038394385325 0.006552910262870574 0.04213880943129451 0.03002179724283635 0.011992727200340478 4.71432961955609 -0.014041396304046442 12.480869215572406 -8.222498938100026 6.8529920162321964 0.01650978472334628 46.37928639369244 -0.017024099963096964 -4.335482762899625 -14.774835866537115 -3.8717745379794946 0.020920583331252893 0.014519337279125749 -0.020651335681428417 0.015370244816789532 -10.74364574717196 0.019773343032303756 
0.011847028909879773 0.02152283413486062 -0.008139092477194415 -0.04310676825284457 0.01901914666740283 -0.030901419985213997 -3.1021003721754514 -0.25845259304059015 -0.8576756431631993 -0.9993405026402635 3.709118996999485 0.45276397235293164 -1.3066889631708392 -1.9891802277184476 -0.07134725356508088 -0.1222725523412877 0.2914820870428691 -0.6493024136815299 0.3494740871376876 12.173516429873223 -0.7108971590455018 0.08491922689525806 -1.2131020770880523 -3.8528371086350037 0.5856559155491429 -17.36191718142271 -0.35082665314236805 -5.280987567765112 1.9568459973044101 -14.609024840588786 70.85939254852516 31.365032512008916 11.836555975226336 2.0278131207971386 3.5093044890245277 91.40233057982655 16.626830812797763 -0.651955325941005 -4.085478752343146 4.526807221467997 -0.10295664804115771 -1.6048987056757973 0.015364949237042435 -0.03329935732148749 -56.23838134063822 0.03656141802577654 0.027387075707855004 -56.247034727098175 -38.76870746612967 -0.014037035670616118 0.00801528626063128 -0.035905530038360715 0.048281518462612735 0.035218801182384726 -0.042538413045204095 0.03647974733043383 0.014090139626091853 -36.72528673943777 -0.032423380479727114 0.04325153686086281 -0.04785546855271034 -0.04196632103391016 -0.028403344612828084 0.020017222469436893 -0.020616714469496557 -0.02799824027403462 -19.74078124270896 0.03768877938985188 0.005052494502338605 0.03794698609457857 0.02800551925033984 -0.002463674243013026 0.007527595583993416 -0.016915130427658485 0.0033960729984334435 24.07828350746383 -0.011130873960376661 0.04388773058907217 28.842796676076347 -0.047435386008558074 -0.035495262908139764 28.852803514163874 -0.000248734067193898 0.02078256731641796 4.628061946042699 1.1389837502963067 13.084469984118527 -73.83699780379459 30.979625491857224 -3.288016258937949 0.5755672807276637 -7.642646497333917 -40.64490424086946 -15.63229598284851 -2.280577941034631 5.247894151471379 -0.45632600094440856 0.08989152344015462 -8.093948458629667 -0.030965018991788874 0.047217708626663496 44.561201569046915 -0.01923724902217221 -0.01669701549520324 44.59999139711841 12.446755603836626 -0.026102361396388656 0.03274523638258731 0.01453283660546179 -0.019058063418729822 -0.02859942279466907 0.04139105089298164 -0.017512964839845314 -0.018248485758174466 11.069492030897104 0.010879598164064091 0.01992257295585049 -0.019564112667992732 -0.010357876745830571 0.04653034477273085 0.007554017655155957 -0.02515863458037629 -0.04091219926700974 4.792473193528796 0.0014676609535690416 -0.011778291502119754 -0.0096897420050014 -0.03893668141950233 0.04820625717825881 0.009481504253737559 -0.018545870106393574 0.03174793599188859 -5.575448471634773 -0.04176835304272983 0.02074113936141825 -6.736407548984397 0.04693117184457968 -0.017856817466119085 -6.710988006125679 -0.02022842392446147 0.030417934925851525 -0.03787453725748945 0.040594418604728164 0.025083985838336376 8.071644842120312 3.5149070647627187 -19.252539579185456 -0.021295716416998723 10.37001003031461 -0.02388650314283362 -5.611468560849808 -15.704143520046685 3.1534571657892303 -0.02164554677536248 -0.007023842853523243 -0.039143151964142954 -0.03367736198931408 4.713967476600876 0.009256732332320192 12.45161398609023 -8.210833235514185 6.835685474222427 -0.019449388616932777 46.37081971212135 0.04716170194674662 -4.283354940283918 -14.787209646923124 -3.8450001710992945 0.021615461121888845 0.017182272104727694 0.023128248692017798 0.017177554519806165 -10.738428414618472 0.026827092816188683 
-0.037936243558293975 -0.010953497276041476 -0.0011797582488076574 -0.028474670370647576 -0.030402284108621308 0.03591904092965934 -3.025878220606921 -0.23911101316665195 -0.856302571895193 -1.016946782339978 3.77873006192981 0.416544301172845 -1.2794084953314573 -1.920414110271956 0.06913337313253647 -0.01937486313656322 0.34387397223549965 -0.6715820509427037 0.457167364792024 11.972996930195878 -1.0430709460548058 0.10808169229536141 -1.2783575545933734 -4.852419175282913 0.7118304636060928 -17.31710398315541 -0.399587986003017 -5.37646313331446 1.9533238980624712 -14.47995437193019 69.77621443821293 32.08843341553381 12.47193916613249 2.178827843721053 3.3010634834802492 90.55061331379964 16.121282181991585 -0.6434595465973849 -3.931641730046763 4.527512967714052 -0.10318268724771268 -1.5621463836188703 0.00025807308832621477 0.005615237648267659 -56.188423247199786 -0.009952554626062114 -0.03571983668182605 -56.223928567532695 -38.72662727210305 -0.0035556362904642946 0.036424826429858226 0.017512896601465988 -0.038366419375800376 -0.019996508381200255 0.00421616344475524 0.029584572365055833 0.034065490070111865 -36.70720944394036 -0.02222467090154262 0.03588376949088385 0.029986022453521843 0.029364990992474096 0.02788263657585968 0.0241862661867291 0.00813773299667179 0.00510335364501673 -19.757861855707556 -0.02688253287415812 -0.03779016042464964 -0.006256777644807496 0.04598298804427604 0.0067200987047828595 0.0147447299505493 -0.03399955231835188 0.027360681521272443 24.062799883384603 0.037902651830405226 0.005311950536543229 28.85307418892118 0.017864390406239456 0.010242416232378327 28.874674293942878 -0.024793077967047047 0.028324880985649236 4.316283186159744 1.065370064757023 13.061308413106355 -73.53576052954904 31.30964881838003 -2.7602245323886336 0.3956689903755166 -7.644806830239742 -40.78245416443855 -15.380521073289032 -1.9680927572561595 4.937259144508111 -0.4349217326586243 0.03688421036837867 -8.16716636635098 -0.048055273139330744 0.03321035795157992 44.56192375060963 0.0482376618802618 0.0009228964482918286 44.61604011533534 12.470252632456752 -0.007105465434466226 -0.022533443979803575 0.017393079771680114 0.0013105426834004045 0.0013273877794915654 -0.027826247716123544 0.03418284523410728 0.01092119449784889 11.10909266576823 -0.018945985784038402 0.017607318460448537 0.010243250135046244 -0.039738074467423515 0.017326861202447554 -0.04035387192304069 0.0024885767006335457 0.030030788363586053 4.74620924444319 0.02579842598669814 -0.029629135463141745 -0.0176480385839638 0.0046952438973666116 -0.039212051709894793 -0.018742059540964858 0.023309220749102893 0.0354428604716856 -5.64789816978238 0.026504279001855122 0.03146961981091497 -6.671783137264279 -0.019537662140865147 -0.03363138669338286 -6.712533858655551 -0.02462797307202429 -0.000559792296266229 -0.003548802302314994 0.047727841504636576 0.021783515659266155 7.9977249502402845 3.4895405886280275 -19.22790457008392 0.04201219410524297 10.434472513145712 -0.015454293736046898 -5.667365475637934 -15.677683263160555 3.155764056775909 -0.015192076351696634 -0.029151929876162753 -0.010109966484156649 0.03011576846423595 4.701049836650317 0.03884631342887567 12.489836899449582 -8.243376383246137 6.9224846341295185 -0.03243445864667988 46.3774342304909 0.008774106663982793 -4.3247625236176 -14.76179732552149 -3.8811886838117142 0.028289483150174103 -0.03962428999292773 0.02442617809647478 0.031195179070759336 -10.740328377481212 0.03856421578539256 
0.03337210606714783 0.048270945511511947 -0.02764130332470592 0.029368469600657934 -0.030899520727790026 -0.034931900849015596 -2.8767655712401394 -0.3569340722915121 -0.847966172523481 -1.0178839452207857 3.7541856653476504 0.42065330089590297 -1.3194332079128948 -1.8922583018585204 0.22831960730227205 0.055616065030326255 0.3374871551946521 -0.6095724942462565 0.5614701774944609 11.878664302240058 -1.3418617058734148 0.08697965572034554 -1.2604366107378269 -5.662182022326386 0.7107811684714789 -17.374977273207488 -0.5076593399076191 -5.469121281469364 1.9249550219382194 -14.385767070105496 69.05581364677494 33.01230531992875 13.666985084770483 2.0601647842207584 2.8630788266008103 90.64125987218155 15.82353533487426 -0.5866875231580831 -3.8034179307148235 4.479949269804566 -0.1565876522133146 -1.5579796445484395 -0.0048716515872877595 -0.006328226510321595 -56.21721095812668 -0.014190668439503328 0.021117585388118826 -56.241281431227776 -38.76082604836843 0.04963929168089536 0.030648111454348058 -0.01860180869027307 -0.00453139711746613 0.03117078046304895 0.023108614447131078 -0.019580884388740803 -0.017478785927894657 -36.695406901404986 -0.046205761298187355 -0.03280767826312904 0.03420084351550877 -0.02005570774302199 0.014436322401978115 -0.008108325595195517 -0.0008489118253467122 -0.0208010925487046 -19.759969634024067 0.009411346902936945 0.029694435762382815 -0.015249286776728415 -0.0022229111709439796 -0.03490274563888697 -0.003036615587981835 0.04719429910148329 -0.010390445386750885 24.032353731680296 0.04396928598401964 0.02672135875687626 28.85542170984251 -0.03342934916381825 0.047258357702615154 28.9100632142573 -0.026912038359754812 -0.03594972453001499 4.179534555544265 1.0316694564069826 12.950566331034093 -73.3653417690408 31.487209120984364 -2.399235045910392 0.5898845317296938 -7.995041746384651 -41.055450276257965 -15.203112039263786 -1.8080068730453709 4.642190434372209 -0.4938966231010342 0.08989589517317226 -8.146690966869283 -0.04449366983089201 0.01628131724313626 44.53423991535456 -0.008578867712697641 0.0009063562734645008 44.582358910740965 12.468057711925496 0.025782067855949196 0.002800117653160452 0.019303021057387456 -0.0033442885293401836 -0.039356657138152715 -0.013714550105430809 -0.005082401442298788 -0.01413643042887471 11.152227049515716 -0.026288818880197927 -0.018963759679589107 -0.036706710162536946 -0.009027952290408321 0.01110982379594669 -0.006832791811764195 0.021708208617396675 -0.0368056263960773 4.779309179150102 -0.01223267247120832 -0.01843957685744484 0.025622690752927318 -0.03940273623368055 -0.04920166624658177 0.035616831351038075 0.0021090413452666814 -0.01009871442801969 -5.585445944199069 -0.024167829837413057 -0.032765493451182334 -6.718266529320111 0.0002861377356501748 -0.026601629195828234 -6.757464438031847 0.04247734814369862 -0.0008267329047179553 0.03127817546318234 0.04996702842525501 -0.009959543989141367 8.059769101463704 3.508428092820527 -19.235331553559057 -0.004659002408943117 10.392358781611007 0.03202088515772092 -5.6321513675541794 -15.671910070578713 3.207682354179774 -0.01350322319194327 -0.026935283800720595 0.034517574010410806 -0.022758686448422757 4.672759008828847 0.007519499755918724 12.49729067248103 -8.287002351516357 6.836417273674489 -0.012996791620226872 46.39974037730523 0.010125950001733205 -4.339861638737352 -14.783377193228016 -3.7863131231148794 -0.011367847293741398 0.01685970807049117 0.0181499161635687 0.021470669008593336 -10.740725140138254 -0.03691821998315495 
